<svg id="Layer_1" enable-background="new 0 0 494.656 494.656" height="512" viewBox="0 0 494.656 494.656" width="512" xmlns="http://www.w3.org/2000/svg"><path d="m167 71.005c-4.418 0-8-3.582-8-8v-43.677c0-4.418 3.582-8 8-8s8 3.582 8 8v43.677c0 4.418-3.582 8-8 8z" fill="#9b9b9b"/><path d="m364.5 319.65c-4.418 0-8-3.582-8-8v-50.322c0-4.418 3.582-8 8-8s8 3.582 8 8v50.322c0 4.418-3.582 8-8 8z" fill="#9b9b9b"/><path d="m329 409.328h71v42h-71z" fill="#d38a54"/><path d="m310.879 343.151h107.242v66.177h-107.242z" fill="#ffb272"/><path d="m260.915 343.151h-187.83l6.608-21.209c3.488-13.834 18.799-23.791 36.583-23.791h100.78c17.516 0 32.673 9.666 36.437 23.236z" fill="#9b9b9b"/><path d="m449 343.151h-166.609l6.608-21.209c3.488-13.834 18.799-23.791 36.583-23.791h79.559c17.516 0 32.673 9.666 36.437 23.236z" fill="#9b9b9b"/><path d="m122.248 257.974h89.503v40.177h-89.503z" fill="#ffb272"/><path d="m247 257.974h-160l6.608-21.209c3.488-13.834 18.799-23.791 36.583-23.791h72.95c17.516 0 32.673 9.666 36.437 23.236z" fill="#9b9b9b"/><path d="m136.164 176.328h61.673v36.646h-61.673z" fill="#ffb272"/><path d="m232 176.328h-130l6.608-16.209c3.488-13.834 18.799-23.791 36.583-23.791h42.95c17.516 0 32.673 9.666 36.437 23.236z" fill="#9b9b9b"/><path d="m151.164 91.328h31.673v45h-31.673z" fill="#ffb272"/><path d="m222 91.328h-110l6.608-16.209c3.488-13.834 18.799-23.791 36.583-23.791h22.95c17.516 0 32.673 9.666 36.437 23.236z" fill="#9b9b9b"/><path d="m100.5 343.151h133v108.177h-133z" fill="#ffb272"/><path d="m45.656 451.328h403.344v32h-403.344z" fill="#af6a3a"/><path d="m146.164 376.24h41.836v75.089h-41.836z" fill="#8c5835"/><g fill="#d38a54"><path d="m0 413.784h45.656v69.544h-45.656z"/><path d="m449 413.784h45.656v69.544h-45.656z"/><path d="m182.836 91.328h-31.673c14.589 4.787 26.334 10.547 31.673 18.5z"/><path d="m197.836 176.151h-50.17c23.11 4.787 41.713 10.547 50.17 18.5z"/><path d="m211.752 257.974h-61.074c28.133 5.827 50.78 12.84 61.074 22.521z"/><path d="m233.5 343.151h-61.074c28.133 5.827 50.78 26.496 61.074 36.177z"/><path d="m418.121 343.151h-61.074c28.133 5.827 50.78 26.496 61.074 36.177z"/></g><path d="m400 409.328h-52.5c24.183 5.009 43.651 22.776 52.5 31.098z" fill="#af6a3a"/><path d="m151.164 136.411h21.503c-5.634-7.577-14.162-10.926-21.503-12.56z" fill="#ffd8b3"/><path d="m136.164 212.974h25.751c-6.748-9.074-16.961-13.084-25.751-15.042z" fill="#ffd8b3"/><path d="m122.248 298.151h25.751c-6.748-9.074-16.961-13.084-25.751-15.042z" fill="#ffd8b3"/><path d="m310.879 409.328h43.621c-11.43-15.37-28.73-22.164-43.621-25.479z" fill="#ffd8b3"/><path d="m329 451.328h32.1c-8.411-11.311-21.142-16.31-32.1-18.75z" fill="#ffb272"/><path d="m100.5 451.328h25.751c-6.748-9.074-16.961-40.043-25.751-42z" fill="#ffd8b3"/><path d="m239.578 236.21c-3.764-13.57-18.921-23.236-36.437-23.236h-30.836c17.516 0 32.673 9.667 36.437 23.236l7.422 21.764h30.836z" fill="#828282"/><path d="m224.578 159.564c-3.764-13.57-18.921-23.236-36.437-23.236h-30.836c17.516 0 32.673 9.666 36.437 23.236l7.422 16.764h30.836z" fill="#828282"/><path d="m214.578 74.564c-3.764-13.57-18.921-23.236-36.437-23.236-26.008 0-22.721-.008-23.967.018 17.075.372 31.715 9.917 35.404 23.219l7.422 16.763h25z" fill="#828282"/><path d="m253.493 321.387c-3.763-13.57-18.921-23.236-36.437-23.236h-38.915c17.516 0 32.673 9.667 36.437 23.236l7.422 21.764h38.915z" fill="#828282"/><path d="m441.578 321.387c-3.764-13.57-18.921-23.236-36.437-23.236h-36.695c17.516 0 32.673 9.667 36.437 23.236l7.422 21.764h36.695z" fill="#828282"/><path d="m143.928 298.151h-27.652c-17.784 0-33.096 9.958-36.583 23.792l-6.608 21.208h27.652l6.608-21.208c3.488-13.835 18.799-23.792 36.583-23.792z" fill="#dbdbdb"/><path d="m157.844 212.974h-27.652c-17.784 0-33.096 9.958-36.583 23.792l-6.609 21.208h27.652l6.608-21.208c3.488-13.834 18.8-23.792 36.584-23.792z" fill="#dbdbdb"/><path d="m169.778 136.328h-24.587c-17.784 0-33.096 9.958-36.583 23.791l-6.608 16.209h24.587l6.608-16.209c3.487-13.833 18.799-23.791 36.583-23.791z" fill="#dbdbdb"/><path d="m176.191 51.328h-21c-17.784 0-33.096 9.958-36.583 23.791l-6.608 16.209h21l6.608-16.209c3.487-13.833 18.799-23.791 36.583-23.791z" fill="#dbdbdb"/><path d="m310.879 343.151 6.608-21.208c3.487-13.832 18.795-23.789 36.577-23.792h-28.481c-17.784 0-33.096 9.958-36.583 23.792l-6.608 21.208c202.331 0 230.893 0 28.487 0z" fill="#dbdbdb"/><path d="m45.656 474.252h403.344v9.076h-403.344z" fill="#8c5835"/><path d="m449 467.328h45.656v16h-45.656z" fill="#af6a3a"/><path d="m449 442.619v-28.835h45.656z" fill="#ffd8b3"/><path d="m0 467.328h45.656v16h-45.656z" fill="#af6a3a"/><path d="m0 442.619v-28.835h45.656z" fill="#ffd8b3"/></svg>